HIERARCHY
ROOT Hips
{
    OFFSET 0.000000 0.000000 0.000000
    CHANNELS 6 Xposition Yposition Zposition Zrotation Xrotation Yrotation
    JOINT Spine
    {
        OFFSET -0.000000 7.305679 0.000000
        CHANNELS 3 Zrotation Xrotation Yrotation
        JOINT Spine1
        {
            OFFSET -0.000000 20.356625 0.000000
            CHANNELS 3 Zrotation Xrotation Yrotation
            JOINT Neck
            {
                OFFSET -0.000000 22.138498 0.000000
                CHANNELS 3 Zrotation Xrotation Yrotation
                JOINT Head
                {
                    OFFSET -0.000000 13.809516 1.781873
                    CHANNELS 3 Zrotation Xrotation Yrotation
                    End Site
                    {
                        OFFSET -0.000000 17.818729 0.000000
                    }
                }
            }
            JOINT LeftShoulder
            {
                OFFSET 3.599131 17.989975 0.023592
                CHANNELS 3 Zrotation Xrotation Yrotation
                JOINT LeftArm
                {
                    OFFSET 12.560995 0.000000 0.000000
                    CHANNELS 3 Zrotation Xrotation Yrotation
                    JOINT LeftForeArm
                    {
                        OFFSET 22.903347 0.000000 0.000000
                        CHANNELS 3 Zrotation Xrotation Yrotation
                        JOINT LeftHand
                        {
                            OFFSET 21.865294 0.000000 0.000000
                            CHANNELS 3 Zrotation Xrotation Yrotation
                            JOINT LeftHandThumb1
                            {
                                OFFSET 1.853706 -2.106484 2.949078
                                CHANNELS 3 Zrotation Xrotation Yrotation
                                JOINT LeftHandThumb2
                                {
                                    OFFSET 2.049154 0.000000 1.336405
                                    CHANNELS 3 Zrotation Xrotation Yrotation
                                    JOINT LeftHandThumb3
                                    {
                                        OFFSET 2.672809 0.000000 0.000000
                                        CHANNELS 3 Zrotation Xrotation Yrotation
                                        End Site
                                        {
                                            OFFSET 2.381303 0.000000 0.000000
                                        }
                                    }
                                }
                            }
                            JOINT LeftHandIndex1
                            {
                                OFFSET 7.583345 0.000000 2.949078
                                CHANNELS 3 Zrotation Xrotation Yrotation
                                JOINT LeftHandIndex2
                                {
                                    OFFSET 4.454682 0.000000 0.000000
                                    CHANNELS 3 Zrotation Xrotation Yrotation
                                    JOINT LeftHandIndex3
                                    {
                                        OFFSET 2.227341 0.000000 0.000000
                                        CHANNELS 3 Zrotation Xrotation Yrotation
                                        End Site
                                        {
                                            OFFSET 1.984419 0.000000 0.000000
                                        }
                                    }
                                }
                            }
                            JOINT LeftHandMiddle1
                            {
                                OFFSET 7.583345 0.000000 0.977409
                                CHANNELS 3 Zrotation Xrotation Yrotation
                                JOINT LeftHandMiddle2
                                {
                                    OFFSET 4.900151 0.000000 0.000000
                                    CHANNELS 3 Zrotation Xrotation Yrotation
                                    JOINT LeftHandMiddle3
                                    {
                                        OFFSET 2.672809 0.000000 0.000000
                                        CHANNELS 3 Zrotation Xrotation Yrotation
                                        End Site
                                        {
                                            OFFSET 2.381303 0.000000 0.000000
                                        }
                                    }
                                }
                            }
                            JOINT LeftHandRing1
                            {
                                OFFSET 7.162047 0.000000 -0.977409
                                CHANNELS 3 Zrotation Xrotation Yrotation
                                JOINT LeftHandRing2
                                {
                                    OFFSET 4.454682 0.000000 0.000000
                                    CHANNELS 3 Zrotation Xrotation Yrotation
                                    JOINT LeftHandRing3
                                    {
                                        OFFSET 2.227341 0.000000 0.000000
                                        CHANNELS 3 Zrotation Xrotation Yrotation
                                        End Site
                                        {
                                            OFFSET 1.984419 0.000000 0.000000
                                        }
                                    }
                                }
                            }
                            JOINT LeftHandPinky1
                            {
                                OFFSET 6.740750 0.000000 -2.949078
                                CHANNELS 3 Zrotation Xrotation Yrotation
                                JOINT LeftHandPinky2
                                {
                                    OFFSET 3.563746 0.000000 0.000000
                                    CHANNELS 3 Zrotation Xrotation Yrotation
                                    JOINT LeftHandPinky3
                                    {
                                        OFFSET 1.781873 0.000000 0.000000
                                        CHANNELS 3 Zrotation Xrotation Yrotation
                                        End Site
                                        {
                                            OFFSET 1.587536 0.000000 0.000000
                                        }
                                    }
                                }
                            }
                        }
                    }
                }
            }
            JOINT RightShoulder
            {
                OFFSET -3.506995 17.989975 0.023592
                CHANNELS 3 Zrotation Xrotation Yrotation
                JOINT RightArm
                {
                    OFFSET -12.560995 0.000000 0.000000
                    CHANNELS 3 Zrotation Xrotation Yrotation
                    JOINT RightForeArm
                    {
                        OFFSET -22.903347 0.000000 0.000000
                        CHANNELS 3 Zrotation Xrotation Yrotation
                        JOINT RightHand
                        {
                            OFFSET -21.865294 0.000000 0.000000
                            CHANNELS 3 Zrotation Xrotation Yrotation
                            JOINT RightHandThumb1
                            {
                                OFFSET -1.853706 -2.106484 2.949078
                                CHANNELS 3 Zrotation Xrotation Yrotation
                                JOINT RightHandThumb2
                                {
                                    OFFSET -2.049154 0.000000 1.336405
                                    CHANNELS 3 Zrotation Xrotation Yrotation
                                    JOINT RightHandThumb3
                                    {
                                        OFFSET -2.672809 0.000000 0.000000
                                        CHANNELS 3 Zrotation Xrotation Yrotation
                                        End Site
                                        {
                                            OFFSET -2.381303 0.000000 0.000000
                                        }
                                    }
                                }
                            }
                            JOINT RightHandIndex1
                            {
                                OFFSET -7.583345 0.000000 2.949078
                                CHANNELS 3 Zrotation Xrotation Yrotation
                                JOINT RightHandIndex2
                                {
                                    OFFSET -4.454682 0.000000 0.000000
                                    CHANNELS 3 Zrotation Xrotation Yrotation
                                    JOINT RightHandIndex3
                                    {
                                        OFFSET -2.227341 0.000000 0.000000
                                        CHANNELS 3 Zrotation Xrotation Yrotation
                                        End Site
                                        {
                                            OFFSET -1.984419 0.000000 0.000000
                                        }
                                    }
                                }
                            }
                            JOINT RightHandMiddle1
                            {
                                OFFSET -7.583345 0.000000 0.977409
                                CHANNELS 3 Zrotation Xrotation Yrotation
                                JOINT RightHandMiddle2
                                {
                                    OFFSET -4.900151 0.000000 0.000000
                                    CHANNELS 3 Zrotation Xrotation Yrotation
                                    JOINT RightHandMiddle3
                                    {
                                        OFFSET -2.672809 0.000000 0.000000
                                        CHANNELS 3 Zrotation Xrotation Yrotation
                                        End Site
                                        {
                                            OFFSET -2.381303 0.000000 0.000000
                                        }
                                    }
                                }
                            }
                            JOINT RightHandRing1
                            {
                                OFFSET -7.162047 0.000000 -0.977409
                                CHANNELS 3 Zrotation Xrotation Yrotation
                                JOINT RightHandRing2
                                {
                                    OFFSET -4.454682 0.000000 0.000000
                                    CHANNELS 3 Zrotation Xrotation Yrotation
                                    JOINT RightHandRing3
                                    {
                                        OFFSET -2.227341 0.000000 0.000000
                                        CHANNELS 3 Zrotation Xrotation Yrotation
                                        End Site
                                        {
                                            OFFSET -1.984419 0.000000 0.000000
                                        }
                                    }
                                }
                            }
                            JOINT RightHandPinky1
                            {
                                OFFSET -6.740750 0.000000 -2.949078
                                CHANNELS 3 Zrotation Xrotation Yrotation
                                JOINT RightHandPinky2
                                {
                                    OFFSET -3.563746 0.000000 0.000000
                                    CHANNELS 3 Zrotation Xrotation Yrotation
                                    JOINT RightHandPinky3
                                    {
                                        OFFSET -1.781873 0.000000 0.000000
                                        CHANNELS 3 Zrotation Xrotation Yrotation
                                        End Site
                                        {
                                            OFFSET -1.587536 0.000000 0.000000
                                        }
                                    }
                                }
                            }
                        }
                    }
                }
            }
        }
    }
    JOINT LeftUpLeg
    {
        OFFSET 8.909365 0.000000 0.000000
        CHANNELS 3 Zrotation Xrotation Yrotation
        JOINT LeftLeg
        {
            OFFSET -0.000000 -38.765560 0.000000
            CHANNELS 3 Zrotation Xrotation Yrotation
            JOINT LeftFoot
            {
                OFFSET -0.000000 -35.244961 0.000000
                CHANNELS 3 Zrotation Xrotation Yrotation
                JOINT LeftToeBase
                {
                    OFFSET -0.000000 -5.791087 13.364048
                    CHANNELS 3 Zrotation Xrotation Yrotation
                    End Site
                    {
                        OFFSET -0.000000 0.000000 3.563746
                    }
                }
            }
        }
    }
    JOINT RightUpLeg
    {
        OFFSET -8.909365 0.000000 0.000000
        CHANNELS 3 Zrotation Xrotation Yrotation
        JOINT RightLeg
        {
            OFFSET -0.000000 -38.765560 0.000000
            CHANNELS 3 Zrotation Xrotation Yrotation
            JOINT RightFoot
            {
                OFFSET -0.000000 -35.244961 0.000000
                CHANNELS 3 Zrotation Xrotation Yrotation
                JOINT RightToeBase
                {
                    OFFSET -0.000000 -5.791087 13.364048
                    CHANNELS 3 Zrotation Xrotation Yrotation
                    End Site
                    {
                        OFFSET -0.000000 0.000000 3.563746
                    }
                }
            }
        }
    }
}
MOTION
Frames:    4
Frame Time:    0.008333
-6.457881    81.190552    112.389412    -0.007679    -1.256331    -0.054147    -0.976816    -0.017145    -2.447401    0.878954    4.657356    -0.851185    1.724446    -2.200678    -0.402707    -0.126582    1.385306    -0.201994    2.053463    4.117924    -8.642311    -88.960487    29.211308    -4.205770    8.943096    -8.058232    2.132392    1.755354    -31.083956    11.943423    -1.775252    1.515615    -0.387398    -0.000000    0.000000    0.265558    -0.000000    0.000000    0.531115    -18.284283    4.761262    -14.101602    -37.747028    0.000000    0.000000    -18.873510    0.000000    0.000000    -25.774744    1.299950    -5.387033    -51.628456    0.000000    0.000000    -25.814228    0.000000    0.000000    -32.665268    -3.224668    2.814818    -65.509888    0.000000    0.000000    -32.754948    0.000000    0.000000    -39.076180    -8.834640    10.710667    -79.811966    0.000000    0.000000    -39.905979    0.000000    0.000000    -4.039305    -1.705151    -0.444733    92.991684    52.488831    -6.188592    -9.999103    -32.868591    1.847346    15.462775    -44.733196    -3.442139    1.379425    -1.877716    3.902047    0.000000    0.000000    0.000000    0.000000    0.000000    0.000000    9.916333    0.000000    -0.000000    19.832666    0.000000    -0.000000    9.916333    0.000000    -0.000000    15.992496    -0.768382    -1.883872    32.020695    0.000000    -0.000000    16.010344    0.000000    -0.000000    22.042185    -1.731449    -3.676434    44.208721    0.000000    -0.000000    22.104357    0.000000    -0.000000    28.245335    -2.915068    -5.407808    56.766071    0.000000    -0.000000    28.383036    0.000000    -0.000000    -0.984025    2.206234    -2.465711    1.201046    2.856280    -2.975416    -0.368099    -3.486185    4.896227    -0.028944    0.530650    0.134332    0.041856    0.342181    1.234188    -0.458384    7.632329    -0.709314    0.278651    -6.306410    2.927156    -0.051315    0.243975    0.104994    
-6.457322    81.190681    112.405899    -0.006075    -1.263067    -0.076071    -0.967840    -0.022074    -2.461493    0.878285    4.651036    -0.855829    1.722416    -2.200563    -0.392841    -0.139642    1.389449    -0.190444    2.052046    4.120306    -8.647789    -88.958389    29.210163    -4.198541    8.950825    -8.027118    2.113288    1.715989    -31.046492    11.938177    -1.790844    1.536290    -0.381589    -0.000000    0.000000    0.272851    -0.000000    0.000000    0.545701    -18.328829    4.761003    -14.065607    -37.833015    0.000000    0.000000    -18.916508    0.000000    0.000000    -25.811407    1.287420    -5.351702    -51.700645    0.000000    0.000000    -25.850317    0.000000    0.000000    -32.692505    -3.248049    2.848734    -65.568260    0.000000    0.000000    -32.784130    0.000000    0.000000    -39.092602    -8.867562    10.743193    -79.856110    0.000000    0.000000    -39.928055    0.000000    0.000000    -4.038557    -1.701703    -0.443304    92.981361    52.490192    -6.186685    -10.000061    -32.807697    1.866064    15.484678    -44.707798    -3.433011    1.378703    -1.882516    3.909099    0.000000    0.000000    0.000000    0.000000    0.000000    0.000000    9.926620    0.000000    -0.000000    19.853241    0.000000    -0.000000    9.926620    0.000000    -0.000000    16.000469    -0.768176    -1.882841    32.036598    0.000000    -0.000000    16.018303    0.000000    -0.000000    22.047873    -1.730858    -3.674438    44.219967    0.000000    -0.000000    22.109983    0.000000    -0.000000    28.248690    -2.913906    -5.404912    56.772526    0.000000    -0.000000    28.386263    0.000000    -0.000000    -0.991007    2.202834    -2.441620    1.206425    2.908130    -2.978414    -0.360212    -3.526528    4.897193    -0.029340    0.535188    0.135836    0.041441    0.339966    1.230481    -0.463555    7.670099    -0.689579    0.276636    -6.331367    2.933867    -0.050483    0.243297    0.103620    
-6.456784    81.190887    112.422691    -0.004336    -1.269880    -0.101231    -0.958939    -0.027536    -2.473107    0.877417    4.645271    -0.859613    1.719779    -2.200420    -0.383189    -0.152011    1.393246    -0.179185    2.051287    4.122426    -8.653794    -88.956955    29.206545    -4.191085    8.958192    -7.995840    2.093804    1.676148    -31.010323    11.932125    -1.805909    1.555166    -0.377337    -0.000000    0.000000    0.278156    -0.000000    0.000000    0.556312    -18.372204    4.757587    -14.021780    -37.915222    0.000000    0.000000    -18.957611    0.000000    0.000000    -25.845295    1.272499    -5.311021    -51.767063    0.000000    0.000000    -25.883530    0.000000    0.000000    -32.715702    -3.272552    2.885782    -65.618896    0.000000    0.000000    -32.809448    0.000000    0.000000    -39.104088    -8.899894    10.776825    -79.890488    0.000000    0.000000    -39.945236    0.000000    0.000000    -4.038187    -1.698308    -0.441967    92.971703    52.490757    -6.184862    -10.000871    -32.749508    1.883513    15.507822    -44.681698    -3.423442    1.377314    -1.886976    3.915136    0.000000    0.000000    0.000000    0.000000    0.000000    0.000000    9.934916    0.000000    -0.000000    19.869833    0.000000    -0.000000    9.934916    0.000000    -0.000000    16.006821    -0.767769    -1.881435    32.049255    0.000000    -0.000000    16.024628    0.000000    -0.000000    22.052305    -1.729837    -3.671709    44.228676    0.000000    -0.000000    22.114338    0.000000    -0.000000    28.251205    -2.912053    -5.400934    56.777176    0.000000    -0.000000    28.388588    0.000000    -0.000000    -0.997925    2.201149    -2.415705    1.211359    2.957902    -2.982579    -0.354100    -3.567063    4.900629    -0.029635    0.539726    0.137090    0.040843    0.337547    1.228698    -0.468886    7.708272    -0.667636    0.274993    -6.356545    2.939596    -0.049703    0.243104    0.102378    
-6.456329    81.191200    112.440002    -0.002726    -1.277267    -0.131532    -0.949762    -0.033428    -2.480826    0.876023    4.640689    -0.862096    1.716233    -2.200197    -0.374022    -0.163046    1.396035    -0.168214    2.051161    4.123864    -8.660706    -88.955658    29.198214    -4.183481    8.964617    -7.963809    2.073829    1.634803    -30.976994    11.924243    -1.820107    1.571297    -0.375370    -0.000000    0.000000    0.280711    -0.000000    0.000000    0.561421    -18.414097    4.749452    -13.965993    -37.992310    0.000000    0.000000    -18.996155    0.000000    0.000000    -25.875320    1.253743    -5.261813    -51.825432    0.000000    0.000000    -25.912722    0.000000    0.000000    -32.733131    -3.299281    2.928280    -65.658569    0.000000    0.000000    -32.829285    0.000000    0.000000    -39.108372    -8.932211    10.813117    -79.910889    0.000000    0.000000    -39.955441    0.000000    0.000000    -4.037999    -1.695462    -0.440322    92.963379    52.490128    -6.183538    -10.001458    -32.697639    1.898406    15.531977    -44.654778    -3.413807    1.375178    -1.890711    3.919491    0.000000    0.000000    0.000000    0.000000    0.000000    0.000000    9.940657    0.000000    -0.000000    19.881311    0.000000    -0.000000    9.940657    0.000000    -0.000000    16.011295    -0.767018    -1.879302    32.058113    0.000000    -0.000000    16.029058    0.000000    -0.000000    22.055571    -1.728074    -3.667552    44.234924    0.000000    -0.000000    22.117464    0.000000    -0.000000    28.253279    -2.908996    -5.394836    56.780724    0.000000    -0.000000    28.390362    0.000000    -0.000000    -1.004398    2.202689    -2.387250    1.215475    3.004319    -2.988389    -0.348507    -3.606689    4.908096    -0.030156    0.542823    0.138730    0.040409    0.335409    1.229862    -0.474603    7.746610    -0.642680    0.273828    -6.381718    2.944309    -0.049072    0.243614    0.101438    
